<svg width="768" height="768" viewBox="0 0 768 768" fill="none" xmlns="http://www.w3.org/2000/svg">
<path fill-rule="evenodd" clip-rule="evenodd" d="M538.112 651.637C601.317 615.146 583.429 465.834 498.158 318.14C412.887 170.446 292.523 80.2988 229.318 116.79C166.113 153.282 184.001 302.593 269.272 450.287C354.543 597.981 474.907 688.129 538.112 651.637ZM515.573 613.702C569.744 582.426 554.413 454.456 481.33 327.872C408.247 201.289 305.087 124.026 250.916 155.302C196.745 186.578 212.077 314.548 285.16 441.131C358.243 567.715 461.402 644.977 515.573 613.702Z" fill="#29ABE2"/>
<path d="M538.751 233.013C619.671 233.013 685.418 301.059 685.587 384.768C685.587 396.895 684.07 408.685 681.541 419.97C680.529 424.349 662.996 485.826 573.984 485.826C559.655 485.826 544.314 481.11 530.153 474.541C533.525 475.215 536.222 475.552 538.582 475.552C587.134 475.046 626.583 434.287 626.583 384.432C626.583 334.071 587.134 293.31 538.582 293.31C525.601 293.31 503.011 299.879 468.451 332.218C460.814 339.298 453.626 346.688 447.024 353.916C438.146 335.404 421.338 321.419 401.001 316.36C409.468 306.915 418.982 297.016 429.171 287.584C468.114 251.371 505.034 233.013 538.751 233.013Z" fill="url(#paint0_linear_1_30)"/>
<path d="M192.48 283.037C206.81 283.037 222.15 287.753 236.311 294.322C232.94 293.648 230.243 293.311 227.882 293.311C179.33 293.817 139.882 334.577 139.882 384.432C139.882 434.793 179.331 475.553 227.882 475.553C240.695 475.553 263.454 468.647 298.013 436.645C306.197 429.058 313.864 421.116 320.847 413.397C329.506 432.02 346.145 446.18 366.371 451.486C357.678 461.236 347.848 471.508 337.294 481.279C298.351 517.492 261.43 535.85 227.714 535.85C146.625 535.85 80.8777 467.805 80.8776 384.095C80.8776 371.969 82.3948 360.178 84.9235 348.893C85.9351 344.345 103.468 282.868 192.48 283.037Z" fill="url(#paint1_linear_1_30)"/>
<path fill-rule="evenodd" clip-rule="evenodd" d="M229.506 652.082C292.797 688.602 413.325 598.385 498.713 450.578C584.1 302.77 602.013 153.344 538.721 116.824C475.43 80.3047 354.902 170.521 269.514 318.329C184.127 466.136 166.214 615.563 229.506 652.082ZM251.119 613.566C305.364 644.865 408.664 567.544 481.847 440.863C555.03 314.182 570.382 186.114 516.137 154.814C461.893 123.514 358.592 200.836 285.409 327.517C212.226 454.198 196.874 582.266 251.119 613.566Z" fill="#29ABE2"/>
<path d="M448.262 411.416C455.26 418.923 463.134 427.115 471.148 434.96C480.926 444.392 528.298 482.457 573.815 483.805C657.264 486.163 680.361 423.844 681.541 419.128C666.2 485.658 608.038 535.176 538.919 535.513C490.516 535.512 441.612 494.569 402.04 451.437C422.893 445.906 439.91 430.956 448.262 411.416ZM383.316 354.147C399.821 354.147 413.201 367.528 413.201 384.033C413.201 400.538 399.821 413.918 383.316 413.918C366.811 413.918 353.431 400.538 353.431 384.033C353.431 367.528 366.811 354.148 383.316 354.147ZM227.883 233.013C276.275 233.013 325.167 273.94 364.627 317.06C343.978 323.058 327.282 338.346 319.363 358.099C312.13 350.313 303.893 341.74 295.484 333.565C285.706 324.133 238.166 285.563 192.648 284.216C111.391 282.195 87.6213 341.145 85.4297 348.724C101.108 282.7 159.101 233.349 227.883 233.013Z" fill="#29ABE2"/>
<defs>
<linearGradient id="paint0_linear_1_30" x1="459.829" y1="257.008" x2="667.469" y2="466.548" gradientUnits="userSpaceOnUse">
<stop offset="0.21" stop-color="#F15A24"/>
<stop offset="0.6841" stop-color="#FBB03B"/>
</linearGradient>
<linearGradient id="paint1_linear_1_30" x1="306.688" y1="511.889" x2="99.0476" y2="302.349" gradientUnits="userSpaceOnUse">
<stop offset="0.21" stop-color="#ED1E79"/>
<stop offset="0.8929" stop-color="#522785"/>
</linearGradient>
</defs>
</svg>
